M48
;DRILL file {KiCad 4.0.7} date 10/15/19 22:27:58
;FORMAT={2:4/ absolute / inch / suppress leading zeros}
FMAT,2
INCH,TZ
T1C0.016
T2C0.031
T3C0.039
T4C0.126
%
G90
G05
M72
T1
X57500Y-27500
T2
X49250Y-25500
X49500Y-27750
X49500Y-31750
X50250Y-25500
X51000Y-27750
X51000Y-31750
X51250Y-25500
X52250Y-25500
X52500Y-27750
X52500Y-31750
X53250Y-25500
X54000Y-27750
X54000Y-31750
X54250Y-25500
T3
X46632Y-27933
X46632Y-29024
X46632Y-30114
X46632Y-31205
X47750Y-27388
X47750Y-28478
X47750Y-29569
X47750Y-30659
X47750Y-31750
X55750Y-27388
X55750Y-28478
X55750Y-29569
X55750Y-30659
X55750Y-31750
X56868Y-27933
X56868Y-29024
X56868Y-30114
X56868Y-31205
T4
X47191Y-24648
X47191Y-34490
X56309Y-24648
X56309Y-34490
T0
M30
