G04 #@! TF.FileFunction,Legend,Top*
%FSLAX46Y46*%
G04 Gerber Fmt 4.6, Leading zero omitted, Abs format (unit mm)*
G04 Created by KiCad (PCBNEW 4.0.7) date 12/17/19 14:56:16*
%MOMM*%
%LPD*%
G01*
G04 APERTURE LIST*
%ADD10C,0.100000*%
%ADD11C,0.150000*%
%ADD12C,0.120000*%
G04 APERTURE END LIST*
D10*
D11*
X141160714Y-66302381D02*
X141160714Y-65302381D01*
X141494048Y-66016667D01*
X141827381Y-65302381D01*
X141827381Y-66302381D01*
X142303571Y-65778571D02*
X142636905Y-65778571D01*
X142779762Y-66302381D02*
X142303571Y-66302381D01*
X142303571Y-65302381D01*
X142779762Y-65302381D01*
X143732143Y-65350000D02*
X143636905Y-65302381D01*
X143494048Y-65302381D01*
X143351190Y-65350000D01*
X143255952Y-65445238D01*
X143208333Y-65540476D01*
X143160714Y-65730952D01*
X143160714Y-65873810D01*
X143208333Y-66064286D01*
X143255952Y-66159524D01*
X143351190Y-66254762D01*
X143494048Y-66302381D01*
X143589286Y-66302381D01*
X143732143Y-66254762D01*
X143779762Y-66207143D01*
X143779762Y-65873810D01*
X143589286Y-65873810D01*
X144160714Y-66016667D02*
X144636905Y-66016667D01*
X144065476Y-66302381D02*
X144398809Y-65302381D01*
X144732143Y-66302381D01*
X140994048Y-67952381D02*
X140994048Y-66952381D01*
X141232143Y-66952381D01*
X141375001Y-67000000D01*
X141470239Y-67095238D01*
X141517858Y-67190476D01*
X141565477Y-67380952D01*
X141565477Y-67523810D01*
X141517858Y-67714286D01*
X141470239Y-67809524D01*
X141375001Y-67904762D01*
X141232143Y-67952381D01*
X140994048Y-67952381D01*
X142565477Y-67952381D02*
X142232143Y-67476190D01*
X141994048Y-67952381D02*
X141994048Y-66952381D01*
X142375001Y-66952381D01*
X142470239Y-67000000D01*
X142517858Y-67047619D01*
X142565477Y-67142857D01*
X142565477Y-67285714D01*
X142517858Y-67380952D01*
X142470239Y-67428571D01*
X142375001Y-67476190D01*
X141994048Y-67476190D01*
X142994048Y-67952381D02*
X142994048Y-66952381D01*
X143327381Y-66952381D02*
X143660714Y-67952381D01*
X143994048Y-66952381D01*
X144327381Y-67428571D02*
X144660715Y-67428571D01*
X144803572Y-67952381D02*
X144327381Y-67952381D01*
X144327381Y-66952381D01*
X144803572Y-66952381D01*
X118229286Y-66016667D02*
X118705477Y-66016667D01*
X118134048Y-66302381D02*
X118467381Y-65302381D01*
X118800715Y-66302381D01*
X118991191Y-65302381D02*
X119562620Y-65302381D01*
X119276905Y-66302381D02*
X119276905Y-65302381D01*
X119848334Y-66016667D02*
X120324525Y-66016667D01*
X119753096Y-66302381D02*
X120086429Y-65302381D01*
X120419763Y-66302381D01*
X121324525Y-66302381D02*
X120991191Y-65826190D01*
X120753096Y-66302381D02*
X120753096Y-65302381D01*
X121134049Y-65302381D01*
X121229287Y-65350000D01*
X121276906Y-65397619D01*
X121324525Y-65492857D01*
X121324525Y-65635714D01*
X121276906Y-65730952D01*
X121229287Y-65778571D01*
X121134049Y-65826190D01*
X120753096Y-65826190D01*
X121753096Y-66302381D02*
X121753096Y-65302381D01*
X118253095Y-66952381D02*
X118919762Y-66952381D01*
X118491190Y-67952381D01*
X119443571Y-67380952D02*
X119348333Y-67333333D01*
X119300714Y-67285714D01*
X119253095Y-67190476D01*
X119253095Y-67142857D01*
X119300714Y-67047619D01*
X119348333Y-67000000D01*
X119443571Y-66952381D01*
X119634048Y-66952381D01*
X119729286Y-67000000D01*
X119776905Y-67047619D01*
X119824524Y-67142857D01*
X119824524Y-67190476D01*
X119776905Y-67285714D01*
X119729286Y-67333333D01*
X119634048Y-67380952D01*
X119443571Y-67380952D01*
X119348333Y-67428571D01*
X119300714Y-67476190D01*
X119253095Y-67571429D01*
X119253095Y-67761905D01*
X119300714Y-67857143D01*
X119348333Y-67904762D01*
X119443571Y-67952381D01*
X119634048Y-67952381D01*
X119729286Y-67904762D01*
X119776905Y-67857143D01*
X119824524Y-67761905D01*
X119824524Y-67571429D01*
X119776905Y-67476190D01*
X119729286Y-67428571D01*
X119634048Y-67380952D01*
X120443571Y-66952381D02*
X120538810Y-66952381D01*
X120634048Y-67000000D01*
X120681667Y-67047619D01*
X120729286Y-67142857D01*
X120776905Y-67333333D01*
X120776905Y-67571429D01*
X120729286Y-67761905D01*
X120681667Y-67857143D01*
X120634048Y-67904762D01*
X120538810Y-67952381D01*
X120443571Y-67952381D01*
X120348333Y-67904762D01*
X120300714Y-67857143D01*
X120253095Y-67761905D01*
X120205476Y-67571429D01*
X120205476Y-67333333D01*
X120253095Y-67142857D01*
X120300714Y-67047619D01*
X120348333Y-67000000D01*
X120443571Y-66952381D01*
X121395952Y-66952381D02*
X121491191Y-66952381D01*
X121586429Y-67000000D01*
X121634048Y-67047619D01*
X121681667Y-67142857D01*
X121729286Y-67333333D01*
X121729286Y-67571429D01*
X121681667Y-67761905D01*
X121634048Y-67857143D01*
X121586429Y-67904762D01*
X121491191Y-67952381D01*
X121395952Y-67952381D01*
X121300714Y-67904762D01*
X121253095Y-67857143D01*
X121205476Y-67761905D01*
X121157857Y-67571429D01*
X121157857Y-67333333D01*
X121205476Y-67142857D01*
X121253095Y-67047619D01*
X121300714Y-67000000D01*
X121395952Y-66952381D01*
X126040238Y-88685714D02*
X126040238Y-89495238D01*
X125992619Y-89590476D01*
X125945000Y-89638095D01*
X125849761Y-89685714D01*
X125706904Y-89685714D01*
X125611666Y-89638095D01*
X126040238Y-89304762D02*
X125945000Y-89352381D01*
X125754523Y-89352381D01*
X125659285Y-89304762D01*
X125611666Y-89257143D01*
X125564047Y-89161905D01*
X125564047Y-88876190D01*
X125611666Y-88780952D01*
X125659285Y-88733333D01*
X125754523Y-88685714D01*
X125945000Y-88685714D01*
X126040238Y-88733333D01*
X126516428Y-89352381D02*
X126516428Y-88685714D01*
X126516428Y-88352381D02*
X126468809Y-88400000D01*
X126516428Y-88447619D01*
X126564047Y-88400000D01*
X126516428Y-88352381D01*
X126516428Y-88447619D01*
X126849761Y-88685714D02*
X127230713Y-88685714D01*
X126992618Y-88352381D02*
X126992618Y-89209524D01*
X127040237Y-89304762D01*
X127135475Y-89352381D01*
X127230713Y-89352381D01*
X127564047Y-89352381D02*
X127564047Y-88352381D01*
X127992619Y-89352381D02*
X127992619Y-88828571D01*
X127945000Y-88733333D01*
X127849762Y-88685714D01*
X127706904Y-88685714D01*
X127611666Y-88733333D01*
X127564047Y-88780952D01*
X128897381Y-88685714D02*
X128897381Y-89352381D01*
X128468809Y-88685714D02*
X128468809Y-89209524D01*
X128516428Y-89304762D01*
X128611666Y-89352381D01*
X128754524Y-89352381D01*
X128849762Y-89304762D01*
X128897381Y-89257143D01*
X129373571Y-89352381D02*
X129373571Y-88352381D01*
X129373571Y-88733333D02*
X129468809Y-88685714D01*
X129659286Y-88685714D01*
X129754524Y-88733333D01*
X129802143Y-88780952D01*
X129849762Y-88876190D01*
X129849762Y-89161905D01*
X129802143Y-89257143D01*
X129754524Y-89304762D01*
X129659286Y-89352381D01*
X129468809Y-89352381D01*
X129373571Y-89304762D01*
X130278333Y-89257143D02*
X130325952Y-89304762D01*
X130278333Y-89352381D01*
X130230714Y-89304762D01*
X130278333Y-89257143D01*
X130278333Y-89352381D01*
X131183095Y-89304762D02*
X131087857Y-89352381D01*
X130897380Y-89352381D01*
X130802142Y-89304762D01*
X130754523Y-89257143D01*
X130706904Y-89161905D01*
X130706904Y-88876190D01*
X130754523Y-88780952D01*
X130802142Y-88733333D01*
X130897380Y-88685714D01*
X131087857Y-88685714D01*
X131183095Y-88733333D01*
X131754523Y-89352381D02*
X131659285Y-89304762D01*
X131611666Y-89257143D01*
X131564047Y-89161905D01*
X131564047Y-88876190D01*
X131611666Y-88780952D01*
X131659285Y-88733333D01*
X131754523Y-88685714D01*
X131897381Y-88685714D01*
X131992619Y-88733333D01*
X132040238Y-88780952D01*
X132087857Y-88876190D01*
X132087857Y-89161905D01*
X132040238Y-89257143D01*
X131992619Y-89304762D01*
X131897381Y-89352381D01*
X131754523Y-89352381D01*
X132516428Y-89352381D02*
X132516428Y-88685714D01*
X132516428Y-88780952D02*
X132564047Y-88733333D01*
X132659285Y-88685714D01*
X132802143Y-88685714D01*
X132897381Y-88733333D01*
X132945000Y-88828571D01*
X132945000Y-89352381D01*
X132945000Y-88828571D02*
X132992619Y-88733333D01*
X133087857Y-88685714D01*
X133230714Y-88685714D01*
X133325952Y-88733333D01*
X133373571Y-88828571D01*
X133373571Y-89352381D01*
X134564047Y-88304762D02*
X133706904Y-89590476D01*
X134754523Y-88685714D02*
X135135475Y-88685714D01*
X134897380Y-88352381D02*
X134897380Y-89209524D01*
X134944999Y-89304762D01*
X135040237Y-89352381D01*
X135135475Y-89352381D01*
X135849762Y-89304762D02*
X135754524Y-89352381D01*
X135564047Y-89352381D01*
X135468809Y-89304762D01*
X135421190Y-89209524D01*
X135421190Y-88828571D01*
X135468809Y-88733333D01*
X135564047Y-88685714D01*
X135754524Y-88685714D01*
X135849762Y-88733333D01*
X135897381Y-88828571D01*
X135897381Y-88923810D01*
X135421190Y-89019048D01*
X136325952Y-89352381D02*
X136325952Y-88352381D01*
X136325952Y-88733333D02*
X136421190Y-88685714D01*
X136611667Y-88685714D01*
X136706905Y-88733333D01*
X136754524Y-88780952D01*
X136802143Y-88876190D01*
X136802143Y-89161905D01*
X136754524Y-89257143D01*
X136706905Y-89304762D01*
X136611667Y-89352381D01*
X136421190Y-89352381D01*
X136325952Y-89304762D01*
X137373571Y-89352381D02*
X137278333Y-89304762D01*
X137230714Y-89209524D01*
X137230714Y-88352381D01*
X125730715Y-83505000D02*
X126445001Y-83505000D01*
X125587858Y-83933571D02*
X126087858Y-82433571D01*
X126587858Y-83933571D01*
X126873572Y-82933571D02*
X127445001Y-82933571D01*
X127087858Y-82433571D02*
X127087858Y-83719286D01*
X127159286Y-83862143D01*
X127302144Y-83933571D01*
X127445001Y-83933571D01*
X128587858Y-83933571D02*
X128587858Y-83147857D01*
X128516429Y-83005000D01*
X128373572Y-82933571D01*
X128087858Y-82933571D01*
X127945001Y-83005000D01*
X128587858Y-83862143D02*
X128445001Y-83933571D01*
X128087858Y-83933571D01*
X127945001Y-83862143D01*
X127873572Y-83719286D01*
X127873572Y-83576429D01*
X127945001Y-83433571D01*
X128087858Y-83362143D01*
X128445001Y-83362143D01*
X128587858Y-83290714D01*
X129302144Y-83933571D02*
X129302144Y-82933571D01*
X129302144Y-83219286D02*
X129373572Y-83076429D01*
X129445001Y-83005000D01*
X129587858Y-82933571D01*
X129730715Y-82933571D01*
X130230715Y-83933571D02*
X130230715Y-82933571D01*
X130230715Y-82433571D02*
X130159286Y-82505000D01*
X130230715Y-82576429D01*
X130302143Y-82505000D01*
X130230715Y-82433571D01*
X130230715Y-82576429D01*
X131945001Y-82433571D02*
X132945001Y-82433571D01*
X132302144Y-83933571D01*
X133730715Y-83076429D02*
X133587857Y-83005000D01*
X133516429Y-82933571D01*
X133445000Y-82790714D01*
X133445000Y-82719286D01*
X133516429Y-82576429D01*
X133587857Y-82505000D01*
X133730715Y-82433571D01*
X134016429Y-82433571D01*
X134159286Y-82505000D01*
X134230715Y-82576429D01*
X134302143Y-82719286D01*
X134302143Y-82790714D01*
X134230715Y-82933571D01*
X134159286Y-83005000D01*
X134016429Y-83076429D01*
X133730715Y-83076429D01*
X133587857Y-83147857D01*
X133516429Y-83219286D01*
X133445000Y-83362143D01*
X133445000Y-83647857D01*
X133516429Y-83790714D01*
X133587857Y-83862143D01*
X133730715Y-83933571D01*
X134016429Y-83933571D01*
X134159286Y-83862143D01*
X134230715Y-83790714D01*
X134302143Y-83647857D01*
X134302143Y-83362143D01*
X134230715Y-83219286D01*
X134159286Y-83147857D01*
X134016429Y-83076429D01*
X135230714Y-82433571D02*
X135373571Y-82433571D01*
X135516428Y-82505000D01*
X135587857Y-82576429D01*
X135659286Y-82719286D01*
X135730714Y-83005000D01*
X135730714Y-83362143D01*
X135659286Y-83647857D01*
X135587857Y-83790714D01*
X135516428Y-83862143D01*
X135373571Y-83933571D01*
X135230714Y-83933571D01*
X135087857Y-83862143D01*
X135016428Y-83790714D01*
X134945000Y-83647857D01*
X134873571Y-83362143D01*
X134873571Y-83005000D01*
X134945000Y-82719286D01*
X135016428Y-82576429D01*
X135087857Y-82505000D01*
X135230714Y-82433571D01*
X136659285Y-82433571D02*
X136802142Y-82433571D01*
X136944999Y-82505000D01*
X137016428Y-82576429D01*
X137087857Y-82719286D01*
X137159285Y-83005000D01*
X137159285Y-83362143D01*
X137087857Y-83647857D01*
X137016428Y-83790714D01*
X136944999Y-83862143D01*
X136802142Y-83933571D01*
X136659285Y-83933571D01*
X136516428Y-83862143D01*
X136444999Y-83790714D01*
X136373571Y-83647857D01*
X136302142Y-83362143D01*
X136302142Y-83005000D01*
X136373571Y-82719286D01*
X136444999Y-82576429D01*
X136516428Y-82505000D01*
X136659285Y-82433571D01*
X124087858Y-86333571D02*
X124087858Y-84833571D01*
X124587858Y-85905000D01*
X125087858Y-84833571D01*
X125087858Y-86333571D01*
X125802144Y-85547857D02*
X126302144Y-85547857D01*
X126516430Y-86333571D02*
X125802144Y-86333571D01*
X125802144Y-84833571D01*
X126516430Y-84833571D01*
X127945001Y-84905000D02*
X127802144Y-84833571D01*
X127587858Y-84833571D01*
X127373573Y-84905000D01*
X127230715Y-85047857D01*
X127159287Y-85190714D01*
X127087858Y-85476429D01*
X127087858Y-85690714D01*
X127159287Y-85976429D01*
X127230715Y-86119286D01*
X127373573Y-86262143D01*
X127587858Y-86333571D01*
X127730715Y-86333571D01*
X127945001Y-86262143D01*
X128016430Y-86190714D01*
X128016430Y-85690714D01*
X127730715Y-85690714D01*
X128587858Y-85905000D02*
X129302144Y-85905000D01*
X128445001Y-86333571D02*
X128945001Y-84833571D01*
X129445001Y-86333571D01*
X131016429Y-85905000D02*
X131730715Y-85905000D01*
X130873572Y-86333571D02*
X131373572Y-84833571D01*
X131873572Y-86333571D01*
X133016429Y-86333571D02*
X133016429Y-84833571D01*
X133016429Y-86262143D02*
X132873572Y-86333571D01*
X132587858Y-86333571D01*
X132445000Y-86262143D01*
X132373572Y-86190714D01*
X132302143Y-86047857D01*
X132302143Y-85619286D01*
X132373572Y-85476429D01*
X132445000Y-85405000D01*
X132587858Y-85333571D01*
X132873572Y-85333571D01*
X133016429Y-85405000D01*
X134373572Y-86333571D02*
X134373572Y-85547857D01*
X134302143Y-85405000D01*
X134159286Y-85333571D01*
X133873572Y-85333571D01*
X133730715Y-85405000D01*
X134373572Y-86262143D02*
X134230715Y-86333571D01*
X133873572Y-86333571D01*
X133730715Y-86262143D01*
X133659286Y-86119286D01*
X133659286Y-85976429D01*
X133730715Y-85833571D01*
X133873572Y-85762143D01*
X134230715Y-85762143D01*
X134373572Y-85690714D01*
X135087858Y-85333571D02*
X135087858Y-86833571D01*
X135087858Y-85405000D02*
X135230715Y-85333571D01*
X135516429Y-85333571D01*
X135659286Y-85405000D01*
X135730715Y-85476429D01*
X135802144Y-85619286D01*
X135802144Y-86047857D01*
X135730715Y-86190714D01*
X135659286Y-86262143D01*
X135516429Y-86333571D01*
X135230715Y-86333571D01*
X135087858Y-86262143D01*
X136230715Y-85333571D02*
X136802144Y-85333571D01*
X136445001Y-84833571D02*
X136445001Y-86119286D01*
X136516429Y-86262143D01*
X136659287Y-86333571D01*
X136802144Y-86333571D01*
X137873572Y-86262143D02*
X137730715Y-86333571D01*
X137445001Y-86333571D01*
X137302144Y-86262143D01*
X137230715Y-86119286D01*
X137230715Y-85547857D01*
X137302144Y-85405000D01*
X137445001Y-85333571D01*
X137730715Y-85333571D01*
X137873572Y-85405000D01*
X137945001Y-85547857D01*
X137945001Y-85690714D01*
X137230715Y-85833571D01*
X138587858Y-86333571D02*
X138587858Y-85333571D01*
X138587858Y-85619286D02*
X138659286Y-85476429D01*
X138730715Y-85405000D01*
X138873572Y-85333571D01*
X139016429Y-85333571D01*
D12*
X110805000Y-59620000D02*
X123145000Y-59620000D01*
X123145000Y-59620000D02*
X123145000Y-90590000D01*
X123145000Y-90590000D02*
X110805000Y-90590000D01*
X133455000Y-66620000D02*
X137055000Y-66620000D01*
X132930816Y-65892795D02*
G75*
G03X133455000Y-66620000I2324184J1122795D01*
G01*
X132898600Y-63671193D02*
G75*
G02X135255000Y-62170000I2356400J-1098807D01*
G01*
X137611400Y-63671193D02*
G75*
G03X135255000Y-62170000I-2356400J-1098807D01*
G01*
X137579184Y-65892795D02*
G75*
G02X137055000Y-66620000I-2324184J1122795D01*
G01*
X125835000Y-66620000D02*
X129435000Y-66620000D01*
X125310816Y-65892795D02*
G75*
G03X125835000Y-66620000I2324184J1122795D01*
G01*
X125278600Y-63671193D02*
G75*
G02X127635000Y-62170000I2356400J-1098807D01*
G01*
X129991400Y-63671193D02*
G75*
G03X127635000Y-62170000I-2356400J-1098807D01*
G01*
X129959184Y-65892795D02*
G75*
G02X129435000Y-66620000I-2324184J1122795D01*
G01*
X152085000Y-90590000D02*
X139745000Y-90590000D01*
X139745000Y-90590000D02*
X139745000Y-59620000D01*
X139745000Y-59620000D02*
X152085000Y-59620000D01*
X138470000Y-72355000D02*
X135850000Y-72355000D01*
X135850000Y-72355000D02*
X135850000Y-78775000D01*
X135850000Y-78775000D02*
X138470000Y-78775000D01*
X138470000Y-78775000D02*
X138470000Y-72355000D01*
X137160000Y-71465000D02*
X137160000Y-72355000D01*
X137160000Y-79665000D02*
X137160000Y-78775000D01*
X134660000Y-72355000D02*
X132040000Y-72355000D01*
X132040000Y-72355000D02*
X132040000Y-78775000D01*
X132040000Y-78775000D02*
X134660000Y-78775000D01*
X134660000Y-78775000D02*
X134660000Y-72355000D01*
X133350000Y-71465000D02*
X133350000Y-72355000D01*
X133350000Y-79665000D02*
X133350000Y-78775000D01*
X130850000Y-72355000D02*
X128230000Y-72355000D01*
X128230000Y-72355000D02*
X128230000Y-78775000D01*
X128230000Y-78775000D02*
X130850000Y-78775000D01*
X130850000Y-78775000D02*
X130850000Y-72355000D01*
X129540000Y-71465000D02*
X129540000Y-72355000D01*
X129540000Y-79665000D02*
X129540000Y-78775000D01*
X127040000Y-72355000D02*
X124420000Y-72355000D01*
X124420000Y-72355000D02*
X124420000Y-78775000D01*
X124420000Y-78775000D02*
X127040000Y-78775000D01*
X127040000Y-78775000D02*
X127040000Y-72355000D01*
X125730000Y-71465000D02*
X125730000Y-72355000D01*
X125730000Y-79665000D02*
X125730000Y-78775000D01*
D11*
X135159762Y-61757619D02*
X135064524Y-61710000D01*
X134969286Y-61614762D01*
X134826429Y-61471905D01*
X134731190Y-61424286D01*
X134635952Y-61424286D01*
X134683571Y-61662381D02*
X134588333Y-61614762D01*
X134493095Y-61519524D01*
X134445476Y-61329048D01*
X134445476Y-60995714D01*
X134493095Y-60805238D01*
X134588333Y-60710000D01*
X134683571Y-60662381D01*
X134874048Y-60662381D01*
X134969286Y-60710000D01*
X135064524Y-60805238D01*
X135112143Y-60995714D01*
X135112143Y-61329048D01*
X135064524Y-61519524D01*
X134969286Y-61614762D01*
X134874048Y-61662381D01*
X134683571Y-61662381D01*
X136064524Y-61662381D02*
X135493095Y-61662381D01*
X135778809Y-61662381D02*
X135778809Y-60662381D01*
X135683571Y-60805238D01*
X135588333Y-60900476D01*
X135493095Y-60948095D01*
D10*
X133083571Y-66948095D02*
X133121666Y-66910000D01*
X133197857Y-66871905D01*
X133388333Y-66871905D01*
X133464523Y-66910000D01*
X133502619Y-66948095D01*
X133540714Y-67024286D01*
X133540714Y-67100476D01*
X133502619Y-67214762D01*
X133045476Y-67671905D01*
X133540714Y-67671905D01*
X133883571Y-67671905D02*
X133883571Y-66871905D01*
X134340714Y-67671905D01*
X134340714Y-66871905D01*
X134645476Y-66871905D02*
X135140714Y-66871905D01*
X134874047Y-67176667D01*
X134988333Y-67176667D01*
X135064523Y-67214762D01*
X135102619Y-67252857D01*
X135140714Y-67329048D01*
X135140714Y-67519524D01*
X135102619Y-67595714D01*
X135064523Y-67633810D01*
X134988333Y-67671905D01*
X134759761Y-67671905D01*
X134683571Y-67633810D01*
X134645476Y-67595714D01*
X135521666Y-67671905D02*
X135674047Y-67671905D01*
X135750238Y-67633810D01*
X135788333Y-67595714D01*
X135864524Y-67481429D01*
X135902619Y-67329048D01*
X135902619Y-67024286D01*
X135864524Y-66948095D01*
X135826428Y-66910000D01*
X135750238Y-66871905D01*
X135597857Y-66871905D01*
X135521666Y-66910000D01*
X135483571Y-66948095D01*
X135445476Y-67024286D01*
X135445476Y-67214762D01*
X135483571Y-67290952D01*
X135521666Y-67329048D01*
X135597857Y-67367143D01*
X135750238Y-67367143D01*
X135826428Y-67329048D01*
X135864524Y-67290952D01*
X135902619Y-67214762D01*
X136397857Y-66871905D02*
X136474048Y-66871905D01*
X136550238Y-66910000D01*
X136588333Y-66948095D01*
X136626429Y-67024286D01*
X136664524Y-67176667D01*
X136664524Y-67367143D01*
X136626429Y-67519524D01*
X136588333Y-67595714D01*
X136550238Y-67633810D01*
X136474048Y-67671905D01*
X136397857Y-67671905D01*
X136321667Y-67633810D01*
X136283571Y-67595714D01*
X136245476Y-67519524D01*
X136207381Y-67367143D01*
X136207381Y-67176667D01*
X136245476Y-67024286D01*
X136283571Y-66948095D01*
X136321667Y-66910000D01*
X136397857Y-66871905D01*
X137350238Y-66871905D02*
X137197857Y-66871905D01*
X137121667Y-66910000D01*
X137083572Y-66948095D01*
X137007381Y-67062381D01*
X136969286Y-67214762D01*
X136969286Y-67519524D01*
X137007381Y-67595714D01*
X137045476Y-67633810D01*
X137121667Y-67671905D01*
X137274048Y-67671905D01*
X137350238Y-67633810D01*
X137388334Y-67595714D01*
X137426429Y-67519524D01*
X137426429Y-67329048D01*
X137388334Y-67252857D01*
X137350238Y-67214762D01*
X137274048Y-67176667D01*
X137121667Y-67176667D01*
X137045476Y-67214762D01*
X137007381Y-67252857D01*
X136969286Y-67329048D01*
D11*
X127539762Y-61757619D02*
X127444524Y-61710000D01*
X127349286Y-61614762D01*
X127206429Y-61471905D01*
X127111190Y-61424286D01*
X127015952Y-61424286D01*
X127063571Y-61662381D02*
X126968333Y-61614762D01*
X126873095Y-61519524D01*
X126825476Y-61329048D01*
X126825476Y-60995714D01*
X126873095Y-60805238D01*
X126968333Y-60710000D01*
X127063571Y-60662381D01*
X127254048Y-60662381D01*
X127349286Y-60710000D01*
X127444524Y-60805238D01*
X127492143Y-60995714D01*
X127492143Y-61329048D01*
X127444524Y-61519524D01*
X127349286Y-61614762D01*
X127254048Y-61662381D01*
X127063571Y-61662381D01*
X127873095Y-60757619D02*
X127920714Y-60710000D01*
X128015952Y-60662381D01*
X128254048Y-60662381D01*
X128349286Y-60710000D01*
X128396905Y-60757619D01*
X128444524Y-60852857D01*
X128444524Y-60948095D01*
X128396905Y-61090952D01*
X127825476Y-61662381D01*
X128444524Y-61662381D01*
D10*
X125463571Y-66948095D02*
X125501666Y-66910000D01*
X125577857Y-66871905D01*
X125768333Y-66871905D01*
X125844523Y-66910000D01*
X125882619Y-66948095D01*
X125920714Y-67024286D01*
X125920714Y-67100476D01*
X125882619Y-67214762D01*
X125425476Y-67671905D01*
X125920714Y-67671905D01*
X126263571Y-67671905D02*
X126263571Y-66871905D01*
X126720714Y-67671905D01*
X126720714Y-66871905D01*
X127025476Y-66871905D02*
X127520714Y-66871905D01*
X127254047Y-67176667D01*
X127368333Y-67176667D01*
X127444523Y-67214762D01*
X127482619Y-67252857D01*
X127520714Y-67329048D01*
X127520714Y-67519524D01*
X127482619Y-67595714D01*
X127444523Y-67633810D01*
X127368333Y-67671905D01*
X127139761Y-67671905D01*
X127063571Y-67633810D01*
X127025476Y-67595714D01*
X127901666Y-67671905D02*
X128054047Y-67671905D01*
X128130238Y-67633810D01*
X128168333Y-67595714D01*
X128244524Y-67481429D01*
X128282619Y-67329048D01*
X128282619Y-67024286D01*
X128244524Y-66948095D01*
X128206428Y-66910000D01*
X128130238Y-66871905D01*
X127977857Y-66871905D01*
X127901666Y-66910000D01*
X127863571Y-66948095D01*
X127825476Y-67024286D01*
X127825476Y-67214762D01*
X127863571Y-67290952D01*
X127901666Y-67329048D01*
X127977857Y-67367143D01*
X128130238Y-67367143D01*
X128206428Y-67329048D01*
X128244524Y-67290952D01*
X128282619Y-67214762D01*
X128777857Y-66871905D02*
X128854048Y-66871905D01*
X128930238Y-66910000D01*
X128968333Y-66948095D01*
X129006429Y-67024286D01*
X129044524Y-67176667D01*
X129044524Y-67367143D01*
X129006429Y-67519524D01*
X128968333Y-67595714D01*
X128930238Y-67633810D01*
X128854048Y-67671905D01*
X128777857Y-67671905D01*
X128701667Y-67633810D01*
X128663571Y-67595714D01*
X128625476Y-67519524D01*
X128587381Y-67367143D01*
X128587381Y-67176667D01*
X128625476Y-67024286D01*
X128663571Y-66948095D01*
X128701667Y-66910000D01*
X128777857Y-66871905D01*
X129730238Y-66871905D02*
X129577857Y-66871905D01*
X129501667Y-66910000D01*
X129463572Y-66948095D01*
X129387381Y-67062381D01*
X129349286Y-67214762D01*
X129349286Y-67519524D01*
X129387381Y-67595714D01*
X129425476Y-67633810D01*
X129501667Y-67671905D01*
X129654048Y-67671905D01*
X129730238Y-67633810D01*
X129768334Y-67595714D01*
X129806429Y-67519524D01*
X129806429Y-67329048D01*
X129768334Y-67252857D01*
X129730238Y-67214762D01*
X129654048Y-67176667D01*
X129501667Y-67176667D01*
X129425476Y-67214762D01*
X129387381Y-67252857D01*
X129349286Y-67329048D01*
D11*
X136993334Y-74112381D02*
X136660000Y-73636190D01*
X136421905Y-74112381D02*
X136421905Y-73112381D01*
X136802858Y-73112381D01*
X136898096Y-73160000D01*
X136945715Y-73207619D01*
X136993334Y-73302857D01*
X136993334Y-73445714D01*
X136945715Y-73540952D01*
X136898096Y-73588571D01*
X136802858Y-73636190D01*
X136421905Y-73636190D01*
X137945715Y-74112381D02*
X137374286Y-74112381D01*
X137660000Y-74112381D02*
X137660000Y-73112381D01*
X137564762Y-73255238D01*
X137469524Y-73350476D01*
X137374286Y-73398095D01*
X136612381Y-77596904D02*
X136612381Y-77787381D01*
X136660000Y-77882619D01*
X136707619Y-77930238D01*
X136850476Y-78025476D01*
X137040952Y-78073095D01*
X137421905Y-78073095D01*
X137517143Y-78025476D01*
X137564762Y-77977857D01*
X137612381Y-77882619D01*
X137612381Y-77692142D01*
X137564762Y-77596904D01*
X137517143Y-77549285D01*
X137421905Y-77501666D01*
X137183810Y-77501666D01*
X137088571Y-77549285D01*
X137040952Y-77596904D01*
X136993333Y-77692142D01*
X136993333Y-77882619D01*
X137040952Y-77977857D01*
X137088571Y-78025476D01*
X137183810Y-78073095D01*
X136707619Y-77120714D02*
X136660000Y-77073095D01*
X136612381Y-76977857D01*
X136612381Y-76739761D01*
X136660000Y-76644523D01*
X136707619Y-76596904D01*
X136802857Y-76549285D01*
X136898095Y-76549285D01*
X137040952Y-76596904D01*
X137612381Y-77168333D01*
X137612381Y-76549285D01*
X136612381Y-75930238D02*
X136612381Y-75834999D01*
X136660000Y-75739761D01*
X136707619Y-75692142D01*
X136802857Y-75644523D01*
X136993333Y-75596904D01*
X137231429Y-75596904D01*
X137421905Y-75644523D01*
X137517143Y-75692142D01*
X137564762Y-75739761D01*
X137612381Y-75834999D01*
X137612381Y-75930238D01*
X137564762Y-76025476D01*
X137517143Y-76073095D01*
X137421905Y-76120714D01*
X137231429Y-76168333D01*
X136993333Y-76168333D01*
X136802857Y-76120714D01*
X136707619Y-76073095D01*
X136660000Y-76025476D01*
X136612381Y-75930238D01*
X133183334Y-74112381D02*
X132850000Y-73636190D01*
X132611905Y-74112381D02*
X132611905Y-73112381D01*
X132992858Y-73112381D01*
X133088096Y-73160000D01*
X133135715Y-73207619D01*
X133183334Y-73302857D01*
X133183334Y-73445714D01*
X133135715Y-73540952D01*
X133088096Y-73588571D01*
X132992858Y-73636190D01*
X132611905Y-73636190D01*
X133564286Y-73207619D02*
X133611905Y-73160000D01*
X133707143Y-73112381D01*
X133945239Y-73112381D01*
X134040477Y-73160000D01*
X134088096Y-73207619D01*
X134135715Y-73302857D01*
X134135715Y-73398095D01*
X134088096Y-73540952D01*
X133516667Y-74112381D01*
X134135715Y-74112381D01*
X133802381Y-76954047D02*
X133802381Y-77525476D01*
X133802381Y-77239762D02*
X132802381Y-77239762D01*
X132945238Y-77335000D01*
X133040476Y-77430238D01*
X133088095Y-77525476D01*
X133802381Y-76525476D02*
X132802381Y-76525476D01*
X133421429Y-76430238D02*
X133802381Y-76144523D01*
X133135714Y-76144523D02*
X133516667Y-76525476D01*
X129373334Y-74112381D02*
X129040000Y-73636190D01*
X128801905Y-74112381D02*
X128801905Y-73112381D01*
X129182858Y-73112381D01*
X129278096Y-73160000D01*
X129325715Y-73207619D01*
X129373334Y-73302857D01*
X129373334Y-73445714D01*
X129325715Y-73540952D01*
X129278096Y-73588571D01*
X129182858Y-73636190D01*
X128801905Y-73636190D01*
X129706667Y-73112381D02*
X130325715Y-73112381D01*
X129992381Y-73493333D01*
X130135239Y-73493333D01*
X130230477Y-73540952D01*
X130278096Y-73588571D01*
X130325715Y-73683810D01*
X130325715Y-73921905D01*
X130278096Y-74017143D01*
X130230477Y-74064762D01*
X130135239Y-74112381D01*
X129849524Y-74112381D01*
X129754286Y-74064762D01*
X129706667Y-74017143D01*
X128992381Y-77596904D02*
X128992381Y-77787381D01*
X129040000Y-77882619D01*
X129087619Y-77930238D01*
X129230476Y-78025476D01*
X129420952Y-78073095D01*
X129801905Y-78073095D01*
X129897143Y-78025476D01*
X129944762Y-77977857D01*
X129992381Y-77882619D01*
X129992381Y-77692142D01*
X129944762Y-77596904D01*
X129897143Y-77549285D01*
X129801905Y-77501666D01*
X129563810Y-77501666D01*
X129468571Y-77549285D01*
X129420952Y-77596904D01*
X129373333Y-77692142D01*
X129373333Y-77882619D01*
X129420952Y-77977857D01*
X129468571Y-78025476D01*
X129563810Y-78073095D01*
X129087619Y-77120714D02*
X129040000Y-77073095D01*
X128992381Y-76977857D01*
X128992381Y-76739761D01*
X129040000Y-76644523D01*
X129087619Y-76596904D01*
X129182857Y-76549285D01*
X129278095Y-76549285D01*
X129420952Y-76596904D01*
X129992381Y-77168333D01*
X129992381Y-76549285D01*
X128992381Y-75930238D02*
X128992381Y-75834999D01*
X129040000Y-75739761D01*
X129087619Y-75692142D01*
X129182857Y-75644523D01*
X129373333Y-75596904D01*
X129611429Y-75596904D01*
X129801905Y-75644523D01*
X129897143Y-75692142D01*
X129944762Y-75739761D01*
X129992381Y-75834999D01*
X129992381Y-75930238D01*
X129944762Y-76025476D01*
X129897143Y-76073095D01*
X129801905Y-76120714D01*
X129611429Y-76168333D01*
X129373333Y-76168333D01*
X129182857Y-76120714D01*
X129087619Y-76073095D01*
X129040000Y-76025476D01*
X128992381Y-75930238D01*
X125700335Y-74302881D02*
X125367001Y-73826690D01*
X125128906Y-74302881D02*
X125128906Y-73302881D01*
X125509859Y-73302881D01*
X125605097Y-73350500D01*
X125652716Y-73398119D01*
X125700335Y-73493357D01*
X125700335Y-73636214D01*
X125652716Y-73731452D01*
X125605097Y-73779071D01*
X125509859Y-73826690D01*
X125128906Y-73826690D01*
X126557478Y-73636214D02*
X126557478Y-74302881D01*
X126319382Y-73255262D02*
X126081287Y-73969548D01*
X126700335Y-73969548D01*
X126319382Y-77144547D02*
X126319382Y-77715976D01*
X126319382Y-77430262D02*
X125319382Y-77430262D01*
X125462239Y-77525500D01*
X125557477Y-77620738D01*
X125605096Y-77715976D01*
X126319382Y-76715976D02*
X125319382Y-76715976D01*
X125938430Y-76620738D02*
X126319382Y-76335023D01*
X125652715Y-76335023D02*
X126033668Y-76715976D01*
M02*
