G04 #@! TF.FileFunction,Copper,L1,Top,Signal*
%FSLAX46Y46*%
G04 Gerber Fmt 4.6, Leading zero omitted, Abs format (unit mm)*
G04 Created by KiCad (PCBNEW 4.0.7) date 12/17/19 14:56:15*
%MOMM*%
%LPD*%
G01*
G04 APERTURE LIST*
%ADD10C,0.100000*%
%ADD11R,1.600000X1.600000*%
%ADD12C,1.600000*%
%ADD13C,4.000000*%
%ADD14C,1.520000*%
%ADD15R,1.520000X1.520000*%
%ADD16O,1.600000X1.600000*%
%ADD17C,0.600000*%
%ADD18C,0.250000*%
G04 APERTURE END LIST*
D10*
D11*
X121285000Y-80645000D03*
D12*
X121285000Y-77875000D03*
X121285000Y-75105000D03*
X121285000Y-72335000D03*
X121285000Y-69565000D03*
X118445000Y-79260000D03*
X118445000Y-76490000D03*
X118445000Y-73720000D03*
X118445000Y-70950000D03*
D13*
X119865000Y-62605000D03*
X119865000Y-87605000D03*
D14*
X135255000Y-64770000D03*
X137795000Y-64770000D03*
D15*
X132715000Y-64770000D03*
D14*
X127635000Y-64770000D03*
X130175000Y-64770000D03*
D15*
X125095000Y-64770000D03*
D11*
X141605000Y-80645000D03*
D12*
X141605000Y-77875000D03*
X141605000Y-75105000D03*
X141605000Y-72335000D03*
X141605000Y-69565000D03*
X144445000Y-79260000D03*
X144445000Y-76490000D03*
X144445000Y-73720000D03*
X144445000Y-70950000D03*
D13*
X143025000Y-87605000D03*
X143025000Y-62605000D03*
D12*
X137160000Y-70485000D03*
D16*
X137160000Y-80645000D03*
D12*
X133350000Y-70485000D03*
D16*
X133350000Y-80645000D03*
D12*
X129540000Y-70485000D03*
D16*
X129540000Y-80645000D03*
D12*
X125730000Y-70485000D03*
D16*
X125730000Y-80645000D03*
D17*
X146050000Y-69850000D03*
D18*
X118445000Y-76490000D02*
X144445000Y-76490000D01*
X141605000Y-69565000D02*
X145765000Y-69565000D01*
X145765000Y-69565000D02*
X146050000Y-69850000D01*
X141605000Y-77875000D02*
X121285000Y-77875000D01*
X123190000Y-74295000D02*
X123825000Y-73660000D01*
X139065000Y-73660000D02*
X139700000Y-74295000D01*
X123825000Y-73660000D02*
X139065000Y-73660000D01*
X141605000Y-75105000D02*
X140510000Y-75105000D01*
X140510000Y-75105000D02*
X139700000Y-74295000D01*
X121285000Y-75105000D02*
X122380000Y-75105000D01*
X122380000Y-75105000D02*
X123190000Y-74295000D01*
X141605000Y-72335000D02*
X137850000Y-72335000D01*
X122555000Y-73025000D02*
X137160000Y-73025000D01*
X122555000Y-73025000D02*
X121865000Y-72335000D01*
X137850000Y-72335000D02*
X137160000Y-73025000D01*
X121285000Y-72335000D02*
X121865000Y-72335000D01*
X141605000Y-80645000D02*
X140970000Y-80645000D01*
X140970000Y-80645000D02*
X139700000Y-79375000D01*
X139700000Y-79375000D02*
X138430000Y-79375000D01*
X121285000Y-80645000D02*
X121920000Y-80645000D01*
X121920000Y-80645000D02*
X123190000Y-79375000D01*
X123190000Y-79375000D02*
X138430000Y-79375000D01*
X118445000Y-79260000D02*
X117360000Y-79260000D01*
X117475000Y-65405000D02*
X124460000Y-65405000D01*
X116840000Y-66040000D02*
X117475000Y-65405000D01*
X116840000Y-78740000D02*
X116840000Y-66040000D01*
X117360000Y-79260000D02*
X116840000Y-78740000D01*
X124460000Y-65405000D02*
X125095000Y-64770000D01*
X125095000Y-64770000D02*
X125095000Y-64135000D01*
X125095000Y-64135000D02*
X125730000Y-63500000D01*
X125730000Y-63500000D02*
X132080000Y-63500000D01*
X132080000Y-63500000D02*
X132715000Y-64135000D01*
X132715000Y-64135000D02*
X132715000Y-64770000D01*
X144445000Y-79260000D02*
X144445000Y-81615000D01*
X133350000Y-81915000D02*
X133350000Y-80645000D01*
X133985000Y-82550000D02*
X133350000Y-81915000D01*
X143510000Y-82550000D02*
X133985000Y-82550000D01*
X144445000Y-81615000D02*
X143510000Y-82550000D01*
X144445000Y-70950000D02*
X145245000Y-70950000D01*
X145245000Y-70950000D02*
X146050000Y-71755000D01*
X146050000Y-71755000D02*
X146050000Y-82550000D01*
X146050000Y-82550000D02*
X145415000Y-83185000D01*
X145415000Y-83185000D02*
X126365000Y-83185000D01*
X126365000Y-83185000D02*
X125730000Y-82550000D01*
X125730000Y-82550000D02*
X125730000Y-80645000D01*
X135255000Y-64770000D02*
X135255000Y-68580000D01*
X135255000Y-68580000D02*
X133350000Y-70485000D01*
X118445000Y-70950000D02*
X122385000Y-70950000D01*
X137160000Y-71755000D02*
X137160000Y-70485000D01*
X136525000Y-72390000D02*
X137160000Y-71755000D01*
X123825000Y-72390000D02*
X136525000Y-72390000D01*
X122385000Y-70950000D02*
X123825000Y-72390000D01*
X137795000Y-64770000D02*
X137795000Y-69850000D01*
X137795000Y-69850000D02*
X137160000Y-70485000D01*
X127635000Y-64770000D02*
X127635000Y-68580000D01*
X127635000Y-68580000D02*
X125730000Y-70485000D01*
X121285000Y-69565000D02*
X123540000Y-69565000D01*
X128905000Y-71755000D02*
X124460000Y-71755000D01*
X128905000Y-71755000D02*
X129540000Y-71120000D01*
X123825000Y-71120000D02*
X124460000Y-71755000D01*
X123825000Y-69850000D02*
X123825000Y-71120000D01*
X123540000Y-69565000D02*
X123825000Y-69850000D01*
X129540000Y-70485000D02*
X129540000Y-71120000D01*
X130175000Y-64770000D02*
X130175000Y-69850000D01*
X130175000Y-69850000D02*
X129540000Y-70485000D01*
M02*
