G04 #@! TF.FileFunction,Copper,L2,Bot,Signal*
%FSLAX46Y46*%
G04 Gerber Fmt 4.6, Leading zero omitted, Abs format (unit mm)*
G04 Created by KiCad (PCBNEW 4.0.7) date 12/17/19 14:56:15*
%MOMM*%
%LPD*%
G01*
G04 APERTURE LIST*
%ADD10C,0.100000*%
%ADD11R,1.600000X1.600000*%
%ADD12C,1.600000*%
%ADD13C,4.000000*%
%ADD14C,1.520000*%
%ADD15R,1.520000X1.520000*%
%ADD16O,1.600000X1.600000*%
%ADD17C,0.600000*%
%ADD18C,0.250000*%
%ADD19C,0.254000*%
G04 APERTURE END LIST*
D10*
D11*
X121285000Y-80645000D03*
D12*
X121285000Y-77875000D03*
X121285000Y-75105000D03*
X121285000Y-72335000D03*
X121285000Y-69565000D03*
X118445000Y-79260000D03*
X118445000Y-76490000D03*
X118445000Y-73720000D03*
X118445000Y-70950000D03*
D13*
X119865000Y-62605000D03*
X119865000Y-87605000D03*
D14*
X135255000Y-64770000D03*
X137795000Y-64770000D03*
D15*
X132715000Y-64770000D03*
D14*
X127635000Y-64770000D03*
X130175000Y-64770000D03*
D15*
X125095000Y-64770000D03*
D11*
X141605000Y-80645000D03*
D12*
X141605000Y-77875000D03*
X141605000Y-75105000D03*
X141605000Y-72335000D03*
X141605000Y-69565000D03*
X144445000Y-79260000D03*
X144445000Y-76490000D03*
X144445000Y-73720000D03*
X144445000Y-70950000D03*
D13*
X143025000Y-87605000D03*
X143025000Y-62605000D03*
D12*
X137160000Y-70485000D03*
D16*
X137160000Y-80645000D03*
D12*
X133350000Y-70485000D03*
D16*
X133350000Y-80645000D03*
D12*
X129540000Y-70485000D03*
D16*
X129540000Y-80645000D03*
D12*
X125730000Y-70485000D03*
D16*
X125730000Y-80645000D03*
D17*
X146050000Y-69850000D03*
D18*
X145760000Y-76490000D02*
X144445000Y-76490000D01*
X146050000Y-76200000D02*
X145760000Y-76490000D01*
X146050000Y-69850000D02*
X146050000Y-76200000D01*
D19*
G36*
X145623979Y-59820478D02*
X145801145Y-59938856D01*
X145919521Y-60116019D01*
X145975000Y-60394931D01*
X145975000Y-68914934D01*
X145864833Y-68914838D01*
X145521057Y-69056883D01*
X145257808Y-69319673D01*
X145115162Y-69663201D01*
X145115152Y-69674477D01*
X144731691Y-69515250D01*
X144160813Y-69514752D01*
X143633200Y-69732757D01*
X143229176Y-70136077D01*
X143010250Y-70663309D01*
X143009752Y-71234187D01*
X143227757Y-71761800D01*
X143631077Y-72165824D01*
X144023060Y-72328590D01*
X143690995Y-72466136D01*
X143616861Y-72712255D01*
X144445000Y-73540395D01*
X144459142Y-73526252D01*
X144638748Y-73705858D01*
X144624605Y-73720000D01*
X144638748Y-73734142D01*
X144459142Y-73913748D01*
X144445000Y-73899605D01*
X143616861Y-74727745D01*
X143690995Y-74973864D01*
X144046938Y-75101804D01*
X143633200Y-75272757D01*
X143229176Y-75676077D01*
X143010250Y-76203309D01*
X143009752Y-76774187D01*
X143227757Y-77301800D01*
X143631077Y-77705824D01*
X144038850Y-77875146D01*
X143633200Y-78042757D01*
X143229176Y-78446077D01*
X143010250Y-78973309D01*
X143009752Y-79544187D01*
X143227757Y-80071800D01*
X143631077Y-80475824D01*
X144158309Y-80694750D01*
X144729187Y-80695248D01*
X145256800Y-80477243D01*
X145660824Y-80073923D01*
X145879750Y-79546691D01*
X145880248Y-78975813D01*
X145662243Y-78448200D01*
X145258923Y-78044176D01*
X144851150Y-77874854D01*
X145256800Y-77707243D01*
X145660824Y-77303923D01*
X145683215Y-77250000D01*
X145760000Y-77250000D01*
X145975000Y-77207233D01*
X145975000Y-89465069D01*
X145919521Y-89743981D01*
X145801145Y-89921144D01*
X145623979Y-90039522D01*
X145345070Y-90095000D01*
X143898867Y-90095000D01*
X144515658Y-89840147D01*
X145257542Y-89099557D01*
X145659542Y-88131433D01*
X145660457Y-87083166D01*
X145260147Y-86114342D01*
X144519557Y-85372458D01*
X143551433Y-84970458D01*
X142503166Y-84969543D01*
X141534342Y-85369853D01*
X140792458Y-86110443D01*
X140390458Y-87078567D01*
X140389543Y-88126834D01*
X140789853Y-89095658D01*
X141530443Y-89837542D01*
X142150471Y-90095000D01*
X120738867Y-90095000D01*
X121355658Y-89840147D01*
X122097542Y-89099557D01*
X122499542Y-88131433D01*
X122500457Y-87083166D01*
X122100147Y-86114342D01*
X121359557Y-85372458D01*
X120391433Y-84970458D01*
X119343166Y-84969543D01*
X118374342Y-85369853D01*
X117632458Y-86110443D01*
X117230458Y-87078567D01*
X117229543Y-88126834D01*
X117629853Y-89095658D01*
X118370443Y-89837542D01*
X118990471Y-90095000D01*
X117544931Y-90095000D01*
X117266019Y-90039521D01*
X117088856Y-89921145D01*
X116970478Y-89743979D01*
X116915000Y-89465070D01*
X116915000Y-76774187D01*
X117009752Y-76774187D01*
X117227757Y-77301800D01*
X117631077Y-77705824D01*
X118038850Y-77875146D01*
X117633200Y-78042757D01*
X117229176Y-78446077D01*
X117010250Y-78973309D01*
X117009752Y-79544187D01*
X117227757Y-80071800D01*
X117631077Y-80475824D01*
X118158309Y-80694750D01*
X118729187Y-80695248D01*
X119256800Y-80477243D01*
X119660824Y-80073923D01*
X119755881Y-79845000D01*
X119837560Y-79845000D01*
X119837560Y-81445000D01*
X119881838Y-81680317D01*
X120020910Y-81896441D01*
X120233110Y-82041431D01*
X120485000Y-82092440D01*
X122085000Y-82092440D01*
X122320317Y-82048162D01*
X122536441Y-81909090D01*
X122681431Y-81696890D01*
X122732440Y-81445000D01*
X122732440Y-80616887D01*
X124295000Y-80616887D01*
X124295000Y-80673113D01*
X124404233Y-81222264D01*
X124715302Y-81687811D01*
X125180849Y-81998880D01*
X125730000Y-82108113D01*
X126279151Y-81998880D01*
X126744698Y-81687811D01*
X127055767Y-81222264D01*
X127101163Y-80994041D01*
X128148086Y-80994041D01*
X128387611Y-81500134D01*
X128802577Y-81876041D01*
X129190961Y-82036904D01*
X129413000Y-81914915D01*
X129413000Y-80772000D01*
X129667000Y-80772000D01*
X129667000Y-81914915D01*
X129889039Y-82036904D01*
X130277423Y-81876041D01*
X130692389Y-81500134D01*
X130931914Y-80994041D01*
X130810629Y-80772000D01*
X129667000Y-80772000D01*
X129413000Y-80772000D01*
X128269371Y-80772000D01*
X128148086Y-80994041D01*
X127101163Y-80994041D01*
X127165000Y-80673113D01*
X127165000Y-80616887D01*
X131915000Y-80616887D01*
X131915000Y-80673113D01*
X132024233Y-81222264D01*
X132335302Y-81687811D01*
X132800849Y-81998880D01*
X133350000Y-82108113D01*
X133899151Y-81998880D01*
X134364698Y-81687811D01*
X134675767Y-81222264D01*
X134721163Y-80994041D01*
X135768086Y-80994041D01*
X136007611Y-81500134D01*
X136422577Y-81876041D01*
X136810961Y-82036904D01*
X137033000Y-81914915D01*
X137033000Y-80772000D01*
X137287000Y-80772000D01*
X137287000Y-81914915D01*
X137509039Y-82036904D01*
X137897423Y-81876041D01*
X138312389Y-81500134D01*
X138551914Y-80994041D01*
X138430629Y-80772000D01*
X137287000Y-80772000D01*
X137033000Y-80772000D01*
X135889371Y-80772000D01*
X135768086Y-80994041D01*
X134721163Y-80994041D01*
X134785000Y-80673113D01*
X134785000Y-80616887D01*
X134721164Y-80295959D01*
X135768086Y-80295959D01*
X135889371Y-80518000D01*
X137033000Y-80518000D01*
X137033000Y-79375085D01*
X137287000Y-79375085D01*
X137287000Y-80518000D01*
X138430629Y-80518000D01*
X138551914Y-80295959D01*
X138338483Y-79845000D01*
X140157560Y-79845000D01*
X140157560Y-81445000D01*
X140201838Y-81680317D01*
X140340910Y-81896441D01*
X140553110Y-82041431D01*
X140805000Y-82092440D01*
X142405000Y-82092440D01*
X142640317Y-82048162D01*
X142856441Y-81909090D01*
X143001431Y-81696890D01*
X143052440Y-81445000D01*
X143052440Y-79845000D01*
X143008162Y-79609683D01*
X142869090Y-79393559D01*
X142656890Y-79248569D01*
X142405000Y-79197560D01*
X142161913Y-79197560D01*
X142416800Y-79092243D01*
X142820824Y-78688923D01*
X143039750Y-78161691D01*
X143040248Y-77590813D01*
X142822243Y-77063200D01*
X142418923Y-76659176D01*
X142011150Y-76489854D01*
X142416800Y-76322243D01*
X142820824Y-75918923D01*
X143039750Y-75391691D01*
X143040248Y-74820813D01*
X142822243Y-74293200D01*
X142418923Y-73889176D01*
X142011150Y-73719854D01*
X142416800Y-73552243D01*
X142465905Y-73503223D01*
X142998035Y-73503223D01*
X143025222Y-74073454D01*
X143191136Y-74474005D01*
X143437255Y-74548139D01*
X144265395Y-73720000D01*
X143437255Y-72891861D01*
X143191136Y-72965995D01*
X142998035Y-73503223D01*
X142465905Y-73503223D01*
X142820824Y-73148923D01*
X143039750Y-72621691D01*
X143040248Y-72050813D01*
X142822243Y-71523200D01*
X142418923Y-71119176D01*
X142011150Y-70949854D01*
X142416800Y-70782243D01*
X142820824Y-70378923D01*
X143039750Y-69851691D01*
X143040248Y-69280813D01*
X142822243Y-68753200D01*
X142418923Y-68349176D01*
X141891691Y-68130250D01*
X141320813Y-68129752D01*
X140793200Y-68347757D01*
X140389176Y-68751077D01*
X140170250Y-69278309D01*
X140169752Y-69849187D01*
X140387757Y-70376800D01*
X140791077Y-70780824D01*
X141198850Y-70950146D01*
X140793200Y-71117757D01*
X140389176Y-71521077D01*
X140170250Y-72048309D01*
X140169752Y-72619187D01*
X140387757Y-73146800D01*
X140791077Y-73550824D01*
X141198850Y-73720146D01*
X140793200Y-73887757D01*
X140389176Y-74291077D01*
X140170250Y-74818309D01*
X140169752Y-75389187D01*
X140387757Y-75916800D01*
X140791077Y-76320824D01*
X141198850Y-76490146D01*
X140793200Y-76657757D01*
X140389176Y-77061077D01*
X140170250Y-77588309D01*
X140169752Y-78159187D01*
X140387757Y-78686800D01*
X140791077Y-79090824D01*
X141048126Y-79197560D01*
X140805000Y-79197560D01*
X140569683Y-79241838D01*
X140353559Y-79380910D01*
X140208569Y-79593110D01*
X140157560Y-79845000D01*
X138338483Y-79845000D01*
X138312389Y-79789866D01*
X137897423Y-79413959D01*
X137509039Y-79253096D01*
X137287000Y-79375085D01*
X137033000Y-79375085D01*
X136810961Y-79253096D01*
X136422577Y-79413959D01*
X136007611Y-79789866D01*
X135768086Y-80295959D01*
X134721164Y-80295959D01*
X134675767Y-80067736D01*
X134364698Y-79602189D01*
X133899151Y-79291120D01*
X133350000Y-79181887D01*
X132800849Y-79291120D01*
X132335302Y-79602189D01*
X132024233Y-80067736D01*
X131915000Y-80616887D01*
X127165000Y-80616887D01*
X127101164Y-80295959D01*
X128148086Y-80295959D01*
X128269371Y-80518000D01*
X129413000Y-80518000D01*
X129413000Y-79375085D01*
X129667000Y-79375085D01*
X129667000Y-80518000D01*
X130810629Y-80518000D01*
X130931914Y-80295959D01*
X130692389Y-79789866D01*
X130277423Y-79413959D01*
X129889039Y-79253096D01*
X129667000Y-79375085D01*
X129413000Y-79375085D01*
X129190961Y-79253096D01*
X128802577Y-79413959D01*
X128387611Y-79789866D01*
X128148086Y-80295959D01*
X127101164Y-80295959D01*
X127055767Y-80067736D01*
X126744698Y-79602189D01*
X126279151Y-79291120D01*
X125730000Y-79181887D01*
X125180849Y-79291120D01*
X124715302Y-79602189D01*
X124404233Y-80067736D01*
X124295000Y-80616887D01*
X122732440Y-80616887D01*
X122732440Y-79845000D01*
X122688162Y-79609683D01*
X122549090Y-79393559D01*
X122336890Y-79248569D01*
X122085000Y-79197560D01*
X121841913Y-79197560D01*
X122096800Y-79092243D01*
X122500824Y-78688923D01*
X122719750Y-78161691D01*
X122720248Y-77590813D01*
X122502243Y-77063200D01*
X122098923Y-76659176D01*
X121691150Y-76489854D01*
X122096800Y-76322243D01*
X122500824Y-75918923D01*
X122719750Y-75391691D01*
X122720248Y-74820813D01*
X122502243Y-74293200D01*
X122098923Y-73889176D01*
X121691150Y-73719854D01*
X122096800Y-73552243D01*
X122500824Y-73148923D01*
X122719750Y-72621691D01*
X122720248Y-72050813D01*
X122502243Y-71523200D01*
X122098923Y-71119176D01*
X121691150Y-70949854D01*
X122096800Y-70782243D01*
X122109878Y-70769187D01*
X124294752Y-70769187D01*
X124512757Y-71296800D01*
X124916077Y-71700824D01*
X125443309Y-71919750D01*
X126014187Y-71920248D01*
X126541800Y-71702243D01*
X126945824Y-71298923D01*
X127164750Y-70771691D01*
X127164752Y-70769187D01*
X128104752Y-70769187D01*
X128322757Y-71296800D01*
X128726077Y-71700824D01*
X129253309Y-71919750D01*
X129824187Y-71920248D01*
X130351800Y-71702243D01*
X130755824Y-71298923D01*
X130974750Y-70771691D01*
X130974752Y-70769187D01*
X131914752Y-70769187D01*
X132132757Y-71296800D01*
X132536077Y-71700824D01*
X133063309Y-71919750D01*
X133634187Y-71920248D01*
X134161800Y-71702243D01*
X134565824Y-71298923D01*
X134784750Y-70771691D01*
X134784752Y-70769187D01*
X135724752Y-70769187D01*
X135942757Y-71296800D01*
X136346077Y-71700824D01*
X136873309Y-71919750D01*
X137444187Y-71920248D01*
X137971800Y-71702243D01*
X138375824Y-71298923D01*
X138594750Y-70771691D01*
X138595248Y-70200813D01*
X138377243Y-69673200D01*
X137973923Y-69269176D01*
X137446691Y-69050250D01*
X136875813Y-69049752D01*
X136348200Y-69267757D01*
X135944176Y-69671077D01*
X135725250Y-70198309D01*
X135724752Y-70769187D01*
X134784752Y-70769187D01*
X134785248Y-70200813D01*
X134567243Y-69673200D01*
X134163923Y-69269176D01*
X133636691Y-69050250D01*
X133065813Y-69049752D01*
X132538200Y-69267757D01*
X132134176Y-69671077D01*
X131915250Y-70198309D01*
X131914752Y-70769187D01*
X130974752Y-70769187D01*
X130975248Y-70200813D01*
X130757243Y-69673200D01*
X130353923Y-69269176D01*
X129826691Y-69050250D01*
X129255813Y-69049752D01*
X128728200Y-69267757D01*
X128324176Y-69671077D01*
X128105250Y-70198309D01*
X128104752Y-70769187D01*
X127164752Y-70769187D01*
X127165248Y-70200813D01*
X126947243Y-69673200D01*
X126543923Y-69269176D01*
X126016691Y-69050250D01*
X125445813Y-69049752D01*
X124918200Y-69267757D01*
X124514176Y-69671077D01*
X124295250Y-70198309D01*
X124294752Y-70769187D01*
X122109878Y-70769187D01*
X122500824Y-70378923D01*
X122719750Y-69851691D01*
X122720248Y-69280813D01*
X122502243Y-68753200D01*
X122098923Y-68349176D01*
X121571691Y-68130250D01*
X121000813Y-68129752D01*
X120473200Y-68347757D01*
X120069176Y-68751077D01*
X119850250Y-69278309D01*
X119849752Y-69849187D01*
X120067757Y-70376800D01*
X120471077Y-70780824D01*
X120878850Y-70950146D01*
X120473200Y-71117757D01*
X120069176Y-71521077D01*
X119850250Y-72048309D01*
X119849752Y-72619187D01*
X120067757Y-73146800D01*
X120471077Y-73550824D01*
X120878850Y-73720146D01*
X120473200Y-73887757D01*
X120069176Y-74291077D01*
X119850250Y-74818309D01*
X119849752Y-75389187D01*
X120067757Y-75916800D01*
X120471077Y-76320824D01*
X120878850Y-76490146D01*
X120473200Y-76657757D01*
X120069176Y-77061077D01*
X119850250Y-77588309D01*
X119849752Y-78159187D01*
X120067757Y-78686800D01*
X120471077Y-79090824D01*
X120728126Y-79197560D01*
X120485000Y-79197560D01*
X120249683Y-79241838D01*
X120033559Y-79380910D01*
X119888569Y-79593110D01*
X119837560Y-79845000D01*
X119755881Y-79845000D01*
X119879750Y-79546691D01*
X119880248Y-78975813D01*
X119662243Y-78448200D01*
X119258923Y-78044176D01*
X118851150Y-77874854D01*
X119256800Y-77707243D01*
X119660824Y-77303923D01*
X119879750Y-76776691D01*
X119880248Y-76205813D01*
X119662243Y-75678200D01*
X119258923Y-75274176D01*
X118866940Y-75111410D01*
X119199005Y-74973864D01*
X119273139Y-74727745D01*
X118445000Y-73899605D01*
X117616861Y-74727745D01*
X117690995Y-74973864D01*
X118046938Y-75101804D01*
X117633200Y-75272757D01*
X117229176Y-75676077D01*
X117010250Y-76203309D01*
X117009752Y-76774187D01*
X116915000Y-76774187D01*
X116915000Y-73503223D01*
X116998035Y-73503223D01*
X117025222Y-74073454D01*
X117191136Y-74474005D01*
X117437255Y-74548139D01*
X118265395Y-73720000D01*
X118624605Y-73720000D01*
X119452745Y-74548139D01*
X119698864Y-74474005D01*
X119891965Y-73936777D01*
X119864778Y-73366546D01*
X119698864Y-72965995D01*
X119452745Y-72891861D01*
X118624605Y-73720000D01*
X118265395Y-73720000D01*
X117437255Y-72891861D01*
X117191136Y-72965995D01*
X116998035Y-73503223D01*
X116915000Y-73503223D01*
X116915000Y-71234187D01*
X117009752Y-71234187D01*
X117227757Y-71761800D01*
X117631077Y-72165824D01*
X118023060Y-72328590D01*
X117690995Y-72466136D01*
X117616861Y-72712255D01*
X118445000Y-73540395D01*
X119273139Y-72712255D01*
X119199005Y-72466136D01*
X118843062Y-72338196D01*
X119256800Y-72167243D01*
X119660824Y-71763923D01*
X119879750Y-71236691D01*
X119880248Y-70665813D01*
X119662243Y-70138200D01*
X119258923Y-69734176D01*
X118731691Y-69515250D01*
X118160813Y-69514752D01*
X117633200Y-69732757D01*
X117229176Y-70136077D01*
X117010250Y-70663309D01*
X117009752Y-71234187D01*
X116915000Y-71234187D01*
X116915000Y-63126834D01*
X117229543Y-63126834D01*
X117629853Y-64095658D01*
X118370443Y-64837542D01*
X119338567Y-65239542D01*
X120386834Y-65240457D01*
X121355658Y-64840147D01*
X122097542Y-64099557D01*
X122134729Y-64010000D01*
X123687560Y-64010000D01*
X123687560Y-65530000D01*
X123731838Y-65765317D01*
X123870910Y-65981441D01*
X124083110Y-66126431D01*
X124335000Y-66177440D01*
X125855000Y-66177440D01*
X126090317Y-66133162D01*
X126306441Y-65994090D01*
X126451431Y-65781890D01*
X126488969Y-65596520D01*
X126843764Y-65951934D01*
X127356300Y-66164758D01*
X127911265Y-66165242D01*
X128424172Y-65953313D01*
X128816934Y-65561236D01*
X128904954Y-65349262D01*
X128991687Y-65559172D01*
X129383764Y-65951934D01*
X129896300Y-66164758D01*
X130451265Y-66165242D01*
X130964172Y-65953313D01*
X131320316Y-65597790D01*
X131351838Y-65765317D01*
X131490910Y-65981441D01*
X131703110Y-66126431D01*
X131955000Y-66177440D01*
X133475000Y-66177440D01*
X133710317Y-66133162D01*
X133926441Y-65994090D01*
X134071431Y-65781890D01*
X134108969Y-65596520D01*
X134463764Y-65951934D01*
X134976300Y-66164758D01*
X135531265Y-66165242D01*
X136044172Y-65953313D01*
X136436934Y-65561236D01*
X136524954Y-65349262D01*
X136611687Y-65559172D01*
X137003764Y-65951934D01*
X137516300Y-66164758D01*
X138071265Y-66165242D01*
X138584172Y-65953313D01*
X138976934Y-65561236D01*
X139189758Y-65048700D01*
X139190242Y-64493735D01*
X138978313Y-63980828D01*
X138586236Y-63588066D01*
X138073700Y-63375242D01*
X137518735Y-63374758D01*
X137005828Y-63586687D01*
X136613066Y-63978764D01*
X136525046Y-64190738D01*
X136438313Y-63980828D01*
X136046236Y-63588066D01*
X135533700Y-63375242D01*
X134978735Y-63374758D01*
X134465828Y-63586687D01*
X134109684Y-63942210D01*
X134078162Y-63774683D01*
X133939090Y-63558559D01*
X133726890Y-63413569D01*
X133475000Y-63362560D01*
X131955000Y-63362560D01*
X131719683Y-63406838D01*
X131503559Y-63545910D01*
X131358569Y-63758110D01*
X131321031Y-63943480D01*
X130966236Y-63588066D01*
X130453700Y-63375242D01*
X129898735Y-63374758D01*
X129385828Y-63586687D01*
X128993066Y-63978764D01*
X128905046Y-64190738D01*
X128818313Y-63980828D01*
X128426236Y-63588066D01*
X127913700Y-63375242D01*
X127358735Y-63374758D01*
X126845828Y-63586687D01*
X126489684Y-63942210D01*
X126458162Y-63774683D01*
X126319090Y-63558559D01*
X126106890Y-63413569D01*
X125855000Y-63362560D01*
X124335000Y-63362560D01*
X124099683Y-63406838D01*
X123883559Y-63545910D01*
X123738569Y-63758110D01*
X123687560Y-64010000D01*
X122134729Y-64010000D01*
X122499542Y-63131433D01*
X122499546Y-63126834D01*
X140389543Y-63126834D01*
X140789853Y-64095658D01*
X141530443Y-64837542D01*
X142498567Y-65239542D01*
X143546834Y-65240457D01*
X144515658Y-64840147D01*
X145257542Y-64099557D01*
X145659542Y-63131433D01*
X145660457Y-62083166D01*
X145260147Y-61114342D01*
X144519557Y-60372458D01*
X143551433Y-59970458D01*
X142503166Y-59969543D01*
X141534342Y-60369853D01*
X140792458Y-61110443D01*
X140390458Y-62078567D01*
X140389543Y-63126834D01*
X122499546Y-63126834D01*
X122500457Y-62083166D01*
X122100147Y-61114342D01*
X121359557Y-60372458D01*
X120391433Y-59970458D01*
X119343166Y-59969543D01*
X118374342Y-60369853D01*
X117632458Y-61110443D01*
X117230458Y-62078567D01*
X117229543Y-63126834D01*
X116915000Y-63126834D01*
X116915000Y-60394930D01*
X116970478Y-60116021D01*
X117088856Y-59938855D01*
X117266019Y-59820479D01*
X117544931Y-59765000D01*
X145345070Y-59765000D01*
X145623979Y-59820478D01*
X145623979Y-59820478D01*
G37*
X145623979Y-59820478D02*
X145801145Y-59938856D01*
X145919521Y-60116019D01*
X145975000Y-60394931D01*
X145975000Y-68914934D01*
X145864833Y-68914838D01*
X145521057Y-69056883D01*
X145257808Y-69319673D01*
X145115162Y-69663201D01*
X145115152Y-69674477D01*
X144731691Y-69515250D01*
X144160813Y-69514752D01*
X143633200Y-69732757D01*
X143229176Y-70136077D01*
X143010250Y-70663309D01*
X143009752Y-71234187D01*
X143227757Y-71761800D01*
X143631077Y-72165824D01*
X144023060Y-72328590D01*
X143690995Y-72466136D01*
X143616861Y-72712255D01*
X144445000Y-73540395D01*
X144459142Y-73526252D01*
X144638748Y-73705858D01*
X144624605Y-73720000D01*
X144638748Y-73734142D01*
X144459142Y-73913748D01*
X144445000Y-73899605D01*
X143616861Y-74727745D01*
X143690995Y-74973864D01*
X144046938Y-75101804D01*
X143633200Y-75272757D01*
X143229176Y-75676077D01*
X143010250Y-76203309D01*
X143009752Y-76774187D01*
X143227757Y-77301800D01*
X143631077Y-77705824D01*
X144038850Y-77875146D01*
X143633200Y-78042757D01*
X143229176Y-78446077D01*
X143010250Y-78973309D01*
X143009752Y-79544187D01*
X143227757Y-80071800D01*
X143631077Y-80475824D01*
X144158309Y-80694750D01*
X144729187Y-80695248D01*
X145256800Y-80477243D01*
X145660824Y-80073923D01*
X145879750Y-79546691D01*
X145880248Y-78975813D01*
X145662243Y-78448200D01*
X145258923Y-78044176D01*
X144851150Y-77874854D01*
X145256800Y-77707243D01*
X145660824Y-77303923D01*
X145683215Y-77250000D01*
X145760000Y-77250000D01*
X145975000Y-77207233D01*
X145975000Y-89465069D01*
X145919521Y-89743981D01*
X145801145Y-89921144D01*
X145623979Y-90039522D01*
X145345070Y-90095000D01*
X143898867Y-90095000D01*
X144515658Y-89840147D01*
X145257542Y-89099557D01*
X145659542Y-88131433D01*
X145660457Y-87083166D01*
X145260147Y-86114342D01*
X144519557Y-85372458D01*
X143551433Y-84970458D01*
X142503166Y-84969543D01*
X141534342Y-85369853D01*
X140792458Y-86110443D01*
X140390458Y-87078567D01*
X140389543Y-88126834D01*
X140789853Y-89095658D01*
X141530443Y-89837542D01*
X142150471Y-90095000D01*
X120738867Y-90095000D01*
X121355658Y-89840147D01*
X122097542Y-89099557D01*
X122499542Y-88131433D01*
X122500457Y-87083166D01*
X122100147Y-86114342D01*
X121359557Y-85372458D01*
X120391433Y-84970458D01*
X119343166Y-84969543D01*
X118374342Y-85369853D01*
X117632458Y-86110443D01*
X117230458Y-87078567D01*
X117229543Y-88126834D01*
X117629853Y-89095658D01*
X118370443Y-89837542D01*
X118990471Y-90095000D01*
X117544931Y-90095000D01*
X117266019Y-90039521D01*
X117088856Y-89921145D01*
X116970478Y-89743979D01*
X116915000Y-89465070D01*
X116915000Y-76774187D01*
X117009752Y-76774187D01*
X117227757Y-77301800D01*
X117631077Y-77705824D01*
X118038850Y-77875146D01*
X117633200Y-78042757D01*
X117229176Y-78446077D01*
X117010250Y-78973309D01*
X117009752Y-79544187D01*
X117227757Y-80071800D01*
X117631077Y-80475824D01*
X118158309Y-80694750D01*
X118729187Y-80695248D01*
X119256800Y-80477243D01*
X119660824Y-80073923D01*
X119755881Y-79845000D01*
X119837560Y-79845000D01*
X119837560Y-81445000D01*
X119881838Y-81680317D01*
X120020910Y-81896441D01*
X120233110Y-82041431D01*
X120485000Y-82092440D01*
X122085000Y-82092440D01*
X122320317Y-82048162D01*
X122536441Y-81909090D01*
X122681431Y-81696890D01*
X122732440Y-81445000D01*
X122732440Y-80616887D01*
X124295000Y-80616887D01*
X124295000Y-80673113D01*
X124404233Y-81222264D01*
X124715302Y-81687811D01*
X125180849Y-81998880D01*
X125730000Y-82108113D01*
X126279151Y-81998880D01*
X126744698Y-81687811D01*
X127055767Y-81222264D01*
X127101163Y-80994041D01*
X128148086Y-80994041D01*
X128387611Y-81500134D01*
X128802577Y-81876041D01*
X129190961Y-82036904D01*
X129413000Y-81914915D01*
X129413000Y-80772000D01*
X129667000Y-80772000D01*
X129667000Y-81914915D01*
X129889039Y-82036904D01*
X130277423Y-81876041D01*
X130692389Y-81500134D01*
X130931914Y-80994041D01*
X130810629Y-80772000D01*
X129667000Y-80772000D01*
X129413000Y-80772000D01*
X128269371Y-80772000D01*
X128148086Y-80994041D01*
X127101163Y-80994041D01*
X127165000Y-80673113D01*
X127165000Y-80616887D01*
X131915000Y-80616887D01*
X131915000Y-80673113D01*
X132024233Y-81222264D01*
X132335302Y-81687811D01*
X132800849Y-81998880D01*
X133350000Y-82108113D01*
X133899151Y-81998880D01*
X134364698Y-81687811D01*
X134675767Y-81222264D01*
X134721163Y-80994041D01*
X135768086Y-80994041D01*
X136007611Y-81500134D01*
X136422577Y-81876041D01*
X136810961Y-82036904D01*
X137033000Y-81914915D01*
X137033000Y-80772000D01*
X137287000Y-80772000D01*
X137287000Y-81914915D01*
X137509039Y-82036904D01*
X137897423Y-81876041D01*
X138312389Y-81500134D01*
X138551914Y-80994041D01*
X138430629Y-80772000D01*
X137287000Y-80772000D01*
X137033000Y-80772000D01*
X135889371Y-80772000D01*
X135768086Y-80994041D01*
X134721163Y-80994041D01*
X134785000Y-80673113D01*
X134785000Y-80616887D01*
X134721164Y-80295959D01*
X135768086Y-80295959D01*
X135889371Y-80518000D01*
X137033000Y-80518000D01*
X137033000Y-79375085D01*
X137287000Y-79375085D01*
X137287000Y-80518000D01*
X138430629Y-80518000D01*
X138551914Y-80295959D01*
X138338483Y-79845000D01*
X140157560Y-79845000D01*
X140157560Y-81445000D01*
X140201838Y-81680317D01*
X140340910Y-81896441D01*
X140553110Y-82041431D01*
X140805000Y-82092440D01*
X142405000Y-82092440D01*
X142640317Y-82048162D01*
X142856441Y-81909090D01*
X143001431Y-81696890D01*
X143052440Y-81445000D01*
X143052440Y-79845000D01*
X143008162Y-79609683D01*
X142869090Y-79393559D01*
X142656890Y-79248569D01*
X142405000Y-79197560D01*
X142161913Y-79197560D01*
X142416800Y-79092243D01*
X142820824Y-78688923D01*
X143039750Y-78161691D01*
X143040248Y-77590813D01*
X142822243Y-77063200D01*
X142418923Y-76659176D01*
X142011150Y-76489854D01*
X142416800Y-76322243D01*
X142820824Y-75918923D01*
X143039750Y-75391691D01*
X143040248Y-74820813D01*
X142822243Y-74293200D01*
X142418923Y-73889176D01*
X142011150Y-73719854D01*
X142416800Y-73552243D01*
X142465905Y-73503223D01*
X142998035Y-73503223D01*
X143025222Y-74073454D01*
X143191136Y-74474005D01*
X143437255Y-74548139D01*
X144265395Y-73720000D01*
X143437255Y-72891861D01*
X143191136Y-72965995D01*
X142998035Y-73503223D01*
X142465905Y-73503223D01*
X142820824Y-73148923D01*
X143039750Y-72621691D01*
X143040248Y-72050813D01*
X142822243Y-71523200D01*
X142418923Y-71119176D01*
X142011150Y-70949854D01*
X142416800Y-70782243D01*
X142820824Y-70378923D01*
X143039750Y-69851691D01*
X143040248Y-69280813D01*
X142822243Y-68753200D01*
X142418923Y-68349176D01*
X141891691Y-68130250D01*
X141320813Y-68129752D01*
X140793200Y-68347757D01*
X140389176Y-68751077D01*
X140170250Y-69278309D01*
X140169752Y-69849187D01*
X140387757Y-70376800D01*
X140791077Y-70780824D01*
X141198850Y-70950146D01*
X140793200Y-71117757D01*
X140389176Y-71521077D01*
X140170250Y-72048309D01*
X140169752Y-72619187D01*
X140387757Y-73146800D01*
X140791077Y-73550824D01*
X141198850Y-73720146D01*
X140793200Y-73887757D01*
X140389176Y-74291077D01*
X140170250Y-74818309D01*
X140169752Y-75389187D01*
X140387757Y-75916800D01*
X140791077Y-76320824D01*
X141198850Y-76490146D01*
X140793200Y-76657757D01*
X140389176Y-77061077D01*
X140170250Y-77588309D01*
X140169752Y-78159187D01*
X140387757Y-78686800D01*
X140791077Y-79090824D01*
X141048126Y-79197560D01*
X140805000Y-79197560D01*
X140569683Y-79241838D01*
X140353559Y-79380910D01*
X140208569Y-79593110D01*
X140157560Y-79845000D01*
X138338483Y-79845000D01*
X138312389Y-79789866D01*
X137897423Y-79413959D01*
X137509039Y-79253096D01*
X137287000Y-79375085D01*
X137033000Y-79375085D01*
X136810961Y-79253096D01*
X136422577Y-79413959D01*
X136007611Y-79789866D01*
X135768086Y-80295959D01*
X134721164Y-80295959D01*
X134675767Y-80067736D01*
X134364698Y-79602189D01*
X133899151Y-79291120D01*
X133350000Y-79181887D01*
X132800849Y-79291120D01*
X132335302Y-79602189D01*
X132024233Y-80067736D01*
X131915000Y-80616887D01*
X127165000Y-80616887D01*
X127101164Y-80295959D01*
X128148086Y-80295959D01*
X128269371Y-80518000D01*
X129413000Y-80518000D01*
X129413000Y-79375085D01*
X129667000Y-79375085D01*
X129667000Y-80518000D01*
X130810629Y-80518000D01*
X130931914Y-80295959D01*
X130692389Y-79789866D01*
X130277423Y-79413959D01*
X129889039Y-79253096D01*
X129667000Y-79375085D01*
X129413000Y-79375085D01*
X129190961Y-79253096D01*
X128802577Y-79413959D01*
X128387611Y-79789866D01*
X128148086Y-80295959D01*
X127101164Y-80295959D01*
X127055767Y-80067736D01*
X126744698Y-79602189D01*
X126279151Y-79291120D01*
X125730000Y-79181887D01*
X125180849Y-79291120D01*
X124715302Y-79602189D01*
X124404233Y-80067736D01*
X124295000Y-80616887D01*
X122732440Y-80616887D01*
X122732440Y-79845000D01*
X122688162Y-79609683D01*
X122549090Y-79393559D01*
X122336890Y-79248569D01*
X122085000Y-79197560D01*
X121841913Y-79197560D01*
X122096800Y-79092243D01*
X122500824Y-78688923D01*
X122719750Y-78161691D01*
X122720248Y-77590813D01*
X122502243Y-77063200D01*
X122098923Y-76659176D01*
X121691150Y-76489854D01*
X122096800Y-76322243D01*
X122500824Y-75918923D01*
X122719750Y-75391691D01*
X122720248Y-74820813D01*
X122502243Y-74293200D01*
X122098923Y-73889176D01*
X121691150Y-73719854D01*
X122096800Y-73552243D01*
X122500824Y-73148923D01*
X122719750Y-72621691D01*
X122720248Y-72050813D01*
X122502243Y-71523200D01*
X122098923Y-71119176D01*
X121691150Y-70949854D01*
X122096800Y-70782243D01*
X122109878Y-70769187D01*
X124294752Y-70769187D01*
X124512757Y-71296800D01*
X124916077Y-71700824D01*
X125443309Y-71919750D01*
X126014187Y-71920248D01*
X126541800Y-71702243D01*
X126945824Y-71298923D01*
X127164750Y-70771691D01*
X127164752Y-70769187D01*
X128104752Y-70769187D01*
X128322757Y-71296800D01*
X128726077Y-71700824D01*
X129253309Y-71919750D01*
X129824187Y-71920248D01*
X130351800Y-71702243D01*
X130755824Y-71298923D01*
X130974750Y-70771691D01*
X130974752Y-70769187D01*
X131914752Y-70769187D01*
X132132757Y-71296800D01*
X132536077Y-71700824D01*
X133063309Y-71919750D01*
X133634187Y-71920248D01*
X134161800Y-71702243D01*
X134565824Y-71298923D01*
X134784750Y-70771691D01*
X134784752Y-70769187D01*
X135724752Y-70769187D01*
X135942757Y-71296800D01*
X136346077Y-71700824D01*
X136873309Y-71919750D01*
X137444187Y-71920248D01*
X137971800Y-71702243D01*
X138375824Y-71298923D01*
X138594750Y-70771691D01*
X138595248Y-70200813D01*
X138377243Y-69673200D01*
X137973923Y-69269176D01*
X137446691Y-69050250D01*
X136875813Y-69049752D01*
X136348200Y-69267757D01*
X135944176Y-69671077D01*
X135725250Y-70198309D01*
X135724752Y-70769187D01*
X134784752Y-70769187D01*
X134785248Y-70200813D01*
X134567243Y-69673200D01*
X134163923Y-69269176D01*
X133636691Y-69050250D01*
X133065813Y-69049752D01*
X132538200Y-69267757D01*
X132134176Y-69671077D01*
X131915250Y-70198309D01*
X131914752Y-70769187D01*
X130974752Y-70769187D01*
X130975248Y-70200813D01*
X130757243Y-69673200D01*
X130353923Y-69269176D01*
X129826691Y-69050250D01*
X129255813Y-69049752D01*
X128728200Y-69267757D01*
X128324176Y-69671077D01*
X128105250Y-70198309D01*
X128104752Y-70769187D01*
X127164752Y-70769187D01*
X127165248Y-70200813D01*
X126947243Y-69673200D01*
X126543923Y-69269176D01*
X126016691Y-69050250D01*
X125445813Y-69049752D01*
X124918200Y-69267757D01*
X124514176Y-69671077D01*
X124295250Y-70198309D01*
X124294752Y-70769187D01*
X122109878Y-70769187D01*
X122500824Y-70378923D01*
X122719750Y-69851691D01*
X122720248Y-69280813D01*
X122502243Y-68753200D01*
X122098923Y-68349176D01*
X121571691Y-68130250D01*
X121000813Y-68129752D01*
X120473200Y-68347757D01*
X120069176Y-68751077D01*
X119850250Y-69278309D01*
X119849752Y-69849187D01*
X120067757Y-70376800D01*
X120471077Y-70780824D01*
X120878850Y-70950146D01*
X120473200Y-71117757D01*
X120069176Y-71521077D01*
X119850250Y-72048309D01*
X119849752Y-72619187D01*
X120067757Y-73146800D01*
X120471077Y-73550824D01*
X120878850Y-73720146D01*
X120473200Y-73887757D01*
X120069176Y-74291077D01*
X119850250Y-74818309D01*
X119849752Y-75389187D01*
X120067757Y-75916800D01*
X120471077Y-76320824D01*
X120878850Y-76490146D01*
X120473200Y-76657757D01*
X120069176Y-77061077D01*
X119850250Y-77588309D01*
X119849752Y-78159187D01*
X120067757Y-78686800D01*
X120471077Y-79090824D01*
X120728126Y-79197560D01*
X120485000Y-79197560D01*
X120249683Y-79241838D01*
X120033559Y-79380910D01*
X119888569Y-79593110D01*
X119837560Y-79845000D01*
X119755881Y-79845000D01*
X119879750Y-79546691D01*
X119880248Y-78975813D01*
X119662243Y-78448200D01*
X119258923Y-78044176D01*
X118851150Y-77874854D01*
X119256800Y-77707243D01*
X119660824Y-77303923D01*
X119879750Y-76776691D01*
X119880248Y-76205813D01*
X119662243Y-75678200D01*
X119258923Y-75274176D01*
X118866940Y-75111410D01*
X119199005Y-74973864D01*
X119273139Y-74727745D01*
X118445000Y-73899605D01*
X117616861Y-74727745D01*
X117690995Y-74973864D01*
X118046938Y-75101804D01*
X117633200Y-75272757D01*
X117229176Y-75676077D01*
X117010250Y-76203309D01*
X117009752Y-76774187D01*
X116915000Y-76774187D01*
X116915000Y-73503223D01*
X116998035Y-73503223D01*
X117025222Y-74073454D01*
X117191136Y-74474005D01*
X117437255Y-74548139D01*
X118265395Y-73720000D01*
X118624605Y-73720000D01*
X119452745Y-74548139D01*
X119698864Y-74474005D01*
X119891965Y-73936777D01*
X119864778Y-73366546D01*
X119698864Y-72965995D01*
X119452745Y-72891861D01*
X118624605Y-73720000D01*
X118265395Y-73720000D01*
X117437255Y-72891861D01*
X117191136Y-72965995D01*
X116998035Y-73503223D01*
X116915000Y-73503223D01*
X116915000Y-71234187D01*
X117009752Y-71234187D01*
X117227757Y-71761800D01*
X117631077Y-72165824D01*
X118023060Y-72328590D01*
X117690995Y-72466136D01*
X117616861Y-72712255D01*
X118445000Y-73540395D01*
X119273139Y-72712255D01*
X119199005Y-72466136D01*
X118843062Y-72338196D01*
X119256800Y-72167243D01*
X119660824Y-71763923D01*
X119879750Y-71236691D01*
X119880248Y-70665813D01*
X119662243Y-70138200D01*
X119258923Y-69734176D01*
X118731691Y-69515250D01*
X118160813Y-69514752D01*
X117633200Y-69732757D01*
X117229176Y-70136077D01*
X117010250Y-70663309D01*
X117009752Y-71234187D01*
X116915000Y-71234187D01*
X116915000Y-63126834D01*
X117229543Y-63126834D01*
X117629853Y-64095658D01*
X118370443Y-64837542D01*
X119338567Y-65239542D01*
X120386834Y-65240457D01*
X121355658Y-64840147D01*
X122097542Y-64099557D01*
X122134729Y-64010000D01*
X123687560Y-64010000D01*
X123687560Y-65530000D01*
X123731838Y-65765317D01*
X123870910Y-65981441D01*
X124083110Y-66126431D01*
X124335000Y-66177440D01*
X125855000Y-66177440D01*
X126090317Y-66133162D01*
X126306441Y-65994090D01*
X126451431Y-65781890D01*
X126488969Y-65596520D01*
X126843764Y-65951934D01*
X127356300Y-66164758D01*
X127911265Y-66165242D01*
X128424172Y-65953313D01*
X128816934Y-65561236D01*
X128904954Y-65349262D01*
X128991687Y-65559172D01*
X129383764Y-65951934D01*
X129896300Y-66164758D01*
X130451265Y-66165242D01*
X130964172Y-65953313D01*
X131320316Y-65597790D01*
X131351838Y-65765317D01*
X131490910Y-65981441D01*
X131703110Y-66126431D01*
X131955000Y-66177440D01*
X133475000Y-66177440D01*
X133710317Y-66133162D01*
X133926441Y-65994090D01*
X134071431Y-65781890D01*
X134108969Y-65596520D01*
X134463764Y-65951934D01*
X134976300Y-66164758D01*
X135531265Y-66165242D01*
X136044172Y-65953313D01*
X136436934Y-65561236D01*
X136524954Y-65349262D01*
X136611687Y-65559172D01*
X137003764Y-65951934D01*
X137516300Y-66164758D01*
X138071265Y-66165242D01*
X138584172Y-65953313D01*
X138976934Y-65561236D01*
X139189758Y-65048700D01*
X139190242Y-64493735D01*
X138978313Y-63980828D01*
X138586236Y-63588066D01*
X138073700Y-63375242D01*
X137518735Y-63374758D01*
X137005828Y-63586687D01*
X136613066Y-63978764D01*
X136525046Y-64190738D01*
X136438313Y-63980828D01*
X136046236Y-63588066D01*
X135533700Y-63375242D01*
X134978735Y-63374758D01*
X134465828Y-63586687D01*
X134109684Y-63942210D01*
X134078162Y-63774683D01*
X133939090Y-63558559D01*
X133726890Y-63413569D01*
X133475000Y-63362560D01*
X131955000Y-63362560D01*
X131719683Y-63406838D01*
X131503559Y-63545910D01*
X131358569Y-63758110D01*
X131321031Y-63943480D01*
X130966236Y-63588066D01*
X130453700Y-63375242D01*
X129898735Y-63374758D01*
X129385828Y-63586687D01*
X128993066Y-63978764D01*
X128905046Y-64190738D01*
X128818313Y-63980828D01*
X128426236Y-63588066D01*
X127913700Y-63375242D01*
X127358735Y-63374758D01*
X126845828Y-63586687D01*
X126489684Y-63942210D01*
X126458162Y-63774683D01*
X126319090Y-63558559D01*
X126106890Y-63413569D01*
X125855000Y-63362560D01*
X124335000Y-63362560D01*
X124099683Y-63406838D01*
X123883559Y-63545910D01*
X123738569Y-63758110D01*
X123687560Y-64010000D01*
X122134729Y-64010000D01*
X122499542Y-63131433D01*
X122499546Y-63126834D01*
X140389543Y-63126834D01*
X140789853Y-64095658D01*
X141530443Y-64837542D01*
X142498567Y-65239542D01*
X143546834Y-65240457D01*
X144515658Y-64840147D01*
X145257542Y-64099557D01*
X145659542Y-63131433D01*
X145660457Y-62083166D01*
X145260147Y-61114342D01*
X144519557Y-60372458D01*
X143551433Y-59970458D01*
X142503166Y-59969543D01*
X141534342Y-60369853D01*
X140792458Y-61110443D01*
X140390458Y-62078567D01*
X140389543Y-63126834D01*
X122499546Y-63126834D01*
X122500457Y-62083166D01*
X122100147Y-61114342D01*
X121359557Y-60372458D01*
X120391433Y-59970458D01*
X119343166Y-59969543D01*
X118374342Y-60369853D01*
X117632458Y-61110443D01*
X117230458Y-62078567D01*
X117229543Y-63126834D01*
X116915000Y-63126834D01*
X116915000Y-60394930D01*
X116970478Y-60116021D01*
X117088856Y-59938855D01*
X117266019Y-59820479D01*
X117544931Y-59765000D01*
X145345070Y-59765000D01*
X145623979Y-59820478D01*
M02*
